<svg
    version="1.0"
    xmlns="http://www.w3.org/2000/svg"
    xmlns:xlink="http://www.w3.org/1999/xlink"
    width="512"
    height="512"
    viewBox="0 0 512 512"
  >
    <svg id="global-svg-defs" version="1.0" xmlns="http://www.w3.org/2000/svg" width="0" height="0" viewBox="0 0 340.000000 250.000000" preserveAspectRatio="xMidYMid meet" color-interpolation-filters="sRGB" class="el-tooltip" style="margin: auto;" xmlns:xlink="http://www.w3.org/1999/xlink">
    <defs>
      <pattern id="watermark" patternUnits="userSpaceOnUse" width="100%" height="100%">
        <image xlink:href="https://www.logosc.cn/img/watermark/LOGOSC-watermark.png" x="0" y="0" width="100%" height="100%">
        </image>
      </pattern>
                    <linearGradient id="92" x1="0%" y1="0%" x2="100%" y2="0%">
          <stop offset="0%" stop-color="#fa71cd"></stop>
          <stop offset="100%" stop-color="#9b59b6"></stop>
        </linearGradient>
              <linearGradient id="93" x1="0%" y1="0%" x2="100%" y2="0%">
          <stop offset="0%" stop-color="#f9d423"></stop>
          <stop offset="100%" stop-color="#f83600"></stop>
        </linearGradient>
              <linearGradient id="94" x1="0%" y1="0%" x2="100%" y2="0%">
          <stop offset="0%" stop-color="#0064d2"></stop>
          <stop offset="100%" stop-color="#1cb0f6"></stop>
        </linearGradient>
              <linearGradient id="95" x1="0%" y1="0%" x2="100%" y2="0%">
          <stop offset="0%" stop-color="#f00978"></stop>
          <stop offset="100%" stop-color="#3f51b1"></stop>
        </linearGradient>
              <linearGradient id="96" x1="0%" y1="0%" x2="100%" y2="0%">
          <stop offset="0%" stop-color="#7873f5"></stop>
          <stop offset="100%" stop-color="#ec77ab"></stop>
        </linearGradient>
              <linearGradient id="97" x1="0%" y1="0%" x2="100%" y2="0%">
          <stop offset="0%" stop-color="#f9d423"></stop>
          <stop offset="100%" stop-color="#e14fad"></stop>
        </linearGradient>
              <linearGradient id="98" x1="0%" y1="0%" x2="100%" y2="0%">
          <stop offset="0%" stop-color="#009efd"></stop>
          <stop offset="100%" stop-color="#2af598"></stop>
        </linearGradient>
              <linearGradient id="99" x1="0%" y1="0%" x2="100%" y2="0%">
          <stop offset="0%" stop-color="#ffcc00"></stop>
          <stop offset="100%" stop-color="#00b140"></stop>
        </linearGradient>
              <linearGradient id="100" x1="0%" y1="0%" x2="100%" y2="0%">
          <stop offset="0%" stop-color="#d51007"></stop>
          <stop offset="100%" stop-color="#ff8177"></stop>
        </linearGradient>
              <linearGradient id="102" x1="0%" y1="0%" x2="100%" y2="0%">
          <stop offset="0%" stop-color="#a2b6df"></stop>
          <stop offset="100%" stop-color="#0c3483"></stop>
        </linearGradient>
              <linearGradient id="103" x1="0%" y1="0%" x2="100%" y2="0%">
          <stop offset="0%" stop-color="#7ac5d8"></stop>
          <stop offset="100%" stop-color="#eea2a2"></stop>
        </linearGradient>
              <linearGradient id="104" x1="0%" y1="0%" x2="100%" y2="0%">
          <stop offset="0%" stop-color="#00ecbc"></stop>
          <stop offset="100%" stop-color="#007adf"></stop>
        </linearGradient>
              <linearGradient id="105" x1="0%" y1="0%" x2="100%" y2="0%">
          <stop offset="0%" stop-color="#b88746"></stop>
          <stop offset="100%" stop-color="#fdf5a6"></stop>
        </linearGradient>
              <linearGradient id="107" x1="0%" y1="0%" x2="100%" y2="0%">
          <stop offset="0%" stop-color="#ffbf00"></stop>
          <stop offset="100%" stop-color="#26b5f8"></stop>
        </linearGradient>
          </defs>
  </svg>
    <rect
      x="0"
      y="0"
      width="100%"
      height="100%"
      fill="transparent"
      fill-opacity="1"
    ></rect>
    <svg data-v-0dd9719b="" version="1.0" xmlns="http://www.w3.org/2000/svg" xmlns:xlink="http://www.w3.org/1999/xlink" width="100%" height="100%" viewBox="0 0 100 100" preserveAspectRatio="xMidYMid meet" color-interpolation-filters="sRGB" style="margin: auto;"> <rect data-v-0dd9719b="" x="0" y="0" width="100%" height="100%" fill="#ffffff" fill-opacity="1" class="background" style="display: none;"/> <rect data-v-0dd9719b="" x="0" y="0" width="100%" height="100%" fill="url(#watermark)" fill-opacity="1" class="watermarklayer" style="display: none;"/> <g data-v-0dd9719b="" fill="#333" class="iconsvg-imagesvg"><rect fill="#333" fill-opacity="0" stroke-width="2" x="0" y="0" width="100" height="100" class="image-rect"/> <svg viewBox="0 0 60 60" x="0" y="0" width="100" height="100" class="image-svg-svg bn" style="overflow: visible;"><g hollow-target=""><g><svg fill="#000000" xmlns="http://www.w3.org/2000/svg" xmlns:xlink="http://www.w3.org/1999/xlink" xml:space="preserve" version="1.1" style="shape-rendering: geometricprecision; text-rendering: geometricprecision; overflow: visible;" viewBox="0 0 204 204" x="0" y="0" fill-rule="evenodd" clip-rule="evenodd" width="60" height="60" filtersec="colorsb1708100210" filter="url(#8iQcy0dTIvpmmOAG_6kBB)"><g transform="scale(1, 1) skewX(0)"><defs><filter id="8iQcy0dTIvpmmOAG_6kBB"><feColorMatrix type="matrix" values="0 0 0 0 0.19921875  0 0 0 0 0.19921875  0 0 0 0 0.19921875  0 0 0 1 0"/></filter></defs><g><path class="fil0" d="M102 0c56,0 102,46 102,102 0,56 -46,102 -102,102 -56,0 -102,-46 -102,-102 0,-56 46,-102 102,-102zm0 17c-47,0 -85,38 -85,85 0,47 38,86 85,86 47,0 86,-39 86,-86 0,-47 -39,-85 -86,-85z"/></g></g></svg></g> <g filter="url(#colors4057026703)"><svg xmlns="http://www.w3.org/2000/svg" xmlns:xlink="http://www.w3.org/1999/xlink" viewBox="0 0 73.7578125 61.3125" width="45" height="45" x="7.5" y="7.5" class="image-svg-letter"><path transform="translate(0.0703125 53.296875)" d="M32.84-53.30L32.84-53.30Q35.30-53.30 38.74-48.66L38.74-48.66Q38.74-48.45 39.02-47.95L39.02-47.95L38.74-44.16L38.88-43.88Q38.74-43.31 38.74-42.89L38.74-42.89L38.88-42.61Q38.60-41.98 38.60-40.78L38.60-40.78L38.60-37.83Q38.60-36 38.46-33.05L38.46-33.05Q38.60-32.84 38.60-32.48L38.60-32.48Q38.46-32.27 38.46-31.64L38.46-31.64L38.60-31.36Q38.46-31.15 38.46-30.80L38.46-30.80L38.60-29.95Q38.60-29.81 38.46-29.53L38.46-29.53Q38.60-28.13 38.60-27.28L38.60-27.28L38.60-26.86L38.88-26.44Q42.19-26.58 43.80-26.58L43.80-26.58L45.77-26.58Q46.13-26.58 46.34-26.72L46.34-26.72L46.62-26.58Q46.76-26.58 46.76-26.72L46.76-26.72L47.46-26.58L51.26-26.58Q51.40-26.58 51.40-26.44L51.40-26.44L51.68-26.58L52.80-26.58Q53.86-26.58 53.93-26.16L53.93-26.16Q48.52-24.47 46.34-24.05L46.34-24.05Q41.06-22.64 39.02-21.94L39.02-21.94Q38.88-21.66 38.88-21.52L38.88-21.52Q39.30-15.33 40.99-7.73L40.99-7.73Q43.10 1.55 45.21 4.50L45.21 4.50Q46.48 7.03 46.48 7.59L46.48 7.59Q46.48 7.80 46.05 8.02L46.05 8.02L45.91 8.02Q42.75 6.96 40.99 3.66L40.99 3.66Q39.45 0.21 37.48-5.34L37.48-5.34Q33.47-9.28 29.60-10.55L29.60-10.55Q25.95-12.09 18.63-12.80L18.63-12.80Q17.93-12.80 17.37-11.39L17.37-11.39Q16.03-8.44 13.15-2.81L13.15-2.81Q12.94-1.41 10.05 2.53L10.05 2.53Q9.84 2.67 9.49 2.67L9.49 2.67Q7.88 2.67 5.84 0L5.84 0Q5.55-0.49 5.55-0.70L5.55-0.70Q7.03-4.36 9.21-8.30L9.21-8.30Q9.21-8.51 11.18-12.80L11.18-12.80Q11.18-12.94 11.04-12.94L11.04-12.94Q10.48-12.94 10.48-13.08L10.48-13.08L10.20-12.94Q7.17-12.94 4.85-12.38L4.85-12.38Q2.18-12.38-0.07-16.03L-0.07-16.03L-0.07-16.17Q-0.07-16.80 4.15-18.42L4.15-18.42Q4.71-18.91 7.95-19.83L7.95-19.83Q11.32-21.09 15.82-22.50L15.82-22.50Q19.27-29.39 23.70-37.27L23.70-37.27Q23.70-37.55 25.24-39.80L25.24-39.80Q27.56-43.95 30.87-49.22L30.87-49.22Q31.57-50.41 31.99-52.59L31.99-52.59L32.84-53.30ZM24.26-25.17L24.26-25.17L24.26-25.03Q24.33-24.75 24.54-24.75L24.54-24.75L32.41-25.88L32.98-25.88Q33.19-25.88 33.54-26.44L33.54-26.44Q33.40-28.55 33.12-29.39L33.12-29.39Q33.26-29.67 33.26-29.81L33.26-29.81Q32.98-30.73 32.98-30.94L32.98-30.94Q32.98-31.08 33.12-31.36L33.12-31.36Q32.77-34.31 32.55-35.30L32.55-35.30L32.70-36.14Q32.70-37.13 32.41-37.13L32.41-37.13L32.55-37.83L32.55-38.39Q32.27-38.74 32.27-38.95L32.27-38.95Q30.80-37.27 29.88-35.16L29.88-35.16Q28.41-33.40 24.68-25.88L24.68-25.88Q24.68-25.66 24.26-25.17L24.26-25.17ZM18.63-13.78L18.63-13.78Q27.42-12.80 31.99-10.55L31.99-10.55Q33.89-9.56 37.05-6.89L37.05-6.89L37.20-6.89L37.20-7.03Q35.79-11.32 34.24-20.81L34.24-20.81L33.82-20.81Q24.19-18.70 20.32-17.30L20.32-17.30Q18.70-14.48 18.63-13.78L18.63-13.78ZM11.88-14.63L11.46-14.63L11.46-14.48L11.88-14.48L11.88-14.63ZM68.20-47.81L68.20-47.81L68.48-47.81Q70.66-47.81 73.69-43.73L73.69-43.73L73.69-43.31Q73.69-42.75 69.61-42.19L69.61-42.19Q69.61-41.98 68.77-41.91L68.77-41.91L68.77-41.77Q68.77-40.99 68.91-40.78L68.91-40.78L65.39-8.44Q65.53-8.23 65.53-7.88L65.53-7.88Q65.39-7.59 65.39-7.45L65.39-7.45L66.66-7.45Q67.64-7.73 67.78-7.73L67.78-7.73L68.06-7.73Q71.65-6.61 73.69-3.09L73.69-3.09L73.69-2.81L73.41-2.25Q72.42-2.53 71.86-2.53L71.86-2.53Q68.13-2.53 65.53-1.97L65.53-1.97L64.97-2.11Q64.48-1.83 64.13-1.83L64.13-1.83Q61.80-1.83 54.42-1.13L54.42-1.13L53.72-1.13Q51.75-1.13 49.50-4.36L49.50-4.36L49.50-4.64Q49.50-5.13 55.83-6.47L55.83-6.47Q56.74-6.75 58.50-6.75L58.50-6.75L59.77-6.61Q60.61-6.61 60.61-10.55L60.61-10.55Q60.82-10.55 60.89-11.81L60.89-11.81L60.75-12.09Q61.10-13.78 61.45-16.45L61.45-16.45L61.31-16.73Q61.59-17.44 61.59-17.72L61.59-17.72L61.45-18.28L62.30-24.47L62.16-24.75Q62.16-25.10 62.44-26.58L62.44-26.58Q62.30-26.86 62.30-27.14L62.30-27.14Q62.58-27.14 62.58-27.42L62.58-27.42Q63.28-36.28 63.70-37.69L63.70-37.69L63.56-37.97Q63.84-38.32 63.98-41.06L63.98-41.06L63.70-41.20Q59.77-40.64 59.06-40.64L59.06-40.64L58.78-40.64Q56.95-40.64 54.28-44.16L54.28-44.16L54.28-44.58Q54.35-44.79 59.91-45.98L59.91-45.98Q65.53-47.11 68.20-47.81L68.20-47.81Z"/></svg></g></g></svg> <defs><filter id="colors4057026703"><feColorMatrix type="matrix" values="0 0 0 0 0.19921875  0 0 0 0 0.19921875  0 0 0 0 0.19921875  0 0 0 1 0" class="icon-fecolormatrix"/></filter> <filter id="colorsf128605281"><feColorMatrix type="matrix" values="0 0 0 0 0.99609375  0 0 0 0 0.99609375  0 0 0 0 0.99609375  0 0 0 1 0" class="icon-fecolormatrix"/></filter> <filter id="colorsb1708100210"><feColorMatrix type="matrix" values="0 0 0 0 0  0 0 0 0 0  0 0 0 0 0  0 0 0 1 0" class="icon-fecolormatrix"/></filter></defs></g><defs v-gra="od"/></svg>
  </svg>